<svg width="1500" height="500" viewBox="0 0 1500 500" fill="none" xmlns="http://www.w3.org/2000/svg">
<rect width="1500" height="500" fill="black"/>
<g clip-path="url(#clip0_8_12)">
<g clip-path="url(#clip1_8_12)">
<path d="M573.833 210H587.167C592.42 210 597.621 211.035 602.474 213.045C607.327 215.055 611.737 218.001 615.451 221.716C619.165 225.43 622.112 229.84 624.122 234.693C626.132 239.546 627.167 244.747 627.167 250C627.167 255.253 626.132 260.454 624.122 265.307C622.112 270.16 619.165 274.57 615.451 278.284C611.737 281.999 607.327 284.945 602.474 286.955C597.621 288.965 592.42 290 587.167 290H547.167V210L562.722 225.556V272.222H587.167C590.085 272.222 592.975 271.647 595.671 270.531C598.367 269.414 600.817 267.777 602.88 265.713C604.944 263.65 606.581 261.2 607.697 258.504C608.814 255.808 609.389 252.918 609.389 250C609.389 247.082 608.814 244.192 607.697 241.496C606.581 238.8 604.944 236.35 602.88 234.287C600.817 232.223 598.367 230.586 595.671 229.469C592.975 228.353 590.085 227.778 587.167 227.778L587.167 258.889L573.833 246.667V210Z" fill="white"/>
</g>
<path d="M649.824 281.111V220.551H660.304V281.111H649.824ZM685.501 282.071C682.141 282.071 679.207 281.324 676.701 279.831C674.247 278.338 672.354 276.258 671.021 273.591C669.741 270.924 669.101 267.804 669.101 264.231V237.591H679.581V263.351C679.581 265.164 679.927 266.764 680.621 268.151C681.367 269.484 682.407 270.551 683.741 271.351C685.127 272.098 686.674 272.471 688.381 272.471C690.087 272.471 691.607 272.098 692.941 271.351C694.274 270.551 695.314 269.458 696.061 268.071C696.807 266.684 697.181 265.031 697.181 263.111V237.591H707.661V281.111H697.741V272.551L698.621 274.071C697.607 276.738 695.927 278.738 693.581 280.071C691.287 281.404 688.594 282.071 685.501 282.071ZM717.402 281.111V220.551H727.882V260.231L723.882 259.031L744.362 237.591H757.402L741.322 255.111L757.722 281.111H745.722L731.482 258.551L737.722 257.271L724.602 271.351L727.882 264.951V281.111H717.402ZM776.774 282.071C773.734 282.071 771.094 281.564 768.854 280.551C766.614 279.538 764.881 278.098 763.654 276.231C762.428 274.311 761.814 272.098 761.814 269.591C761.814 267.191 762.348 265.058 763.414 263.191C764.481 261.271 766.134 259.671 768.374 258.391C770.614 257.111 773.441 256.204 776.854 255.671L791.094 253.351V261.351L778.854 263.431C776.774 263.804 775.228 264.471 774.214 265.431C773.201 266.391 772.694 267.644 772.694 269.191C772.694 270.684 773.254 271.884 774.374 272.791C775.548 273.644 776.988 274.071 778.694 274.071C780.881 274.071 782.801 273.618 784.454 272.711C786.161 271.751 787.468 270.444 788.374 268.791C789.334 267.138 789.814 265.324 789.814 263.351V252.151C789.814 250.284 789.068 248.738 787.574 247.511C786.134 246.231 784.214 245.591 781.814 245.591C779.574 245.591 777.574 246.204 775.814 247.431C774.108 248.604 772.854 250.178 772.054 252.151L763.494 247.991C764.348 245.698 765.681 243.724 767.494 242.071C769.361 240.364 771.548 239.031 774.054 238.071C776.561 237.111 779.281 236.631 782.214 236.631C785.788 236.631 788.934 237.298 791.654 238.631C794.374 239.911 796.481 241.724 797.974 244.071C799.521 246.364 800.294 249.058 800.294 252.151V281.111H790.374V273.671L792.614 273.511C791.494 275.378 790.161 276.951 788.614 278.231C787.068 279.458 785.308 280.418 783.334 281.111C781.361 281.751 779.174 282.071 776.774 282.071ZM830.221 282.071C826.007 282.071 822.247 281.084 818.941 279.111C815.634 277.084 813.021 274.338 811.101 270.871C809.181 267.404 808.221 263.564 808.221 259.351C808.221 255.084 809.181 251.244 811.101 247.831C813.021 244.418 815.634 241.698 818.941 239.671C822.301 237.644 826.034 236.631 830.141 236.631C833.447 236.631 836.381 237.298 838.941 238.631C841.554 239.911 843.607 241.724 845.101 244.071L843.501 246.231V220.551H853.981V281.111H844.061V272.711L845.181 274.791C843.687 277.138 841.607 278.951 838.941 280.231C836.274 281.458 833.367 282.071 830.221 282.071ZM831.341 272.471C833.741 272.471 835.847 271.911 837.661 270.791C839.474 269.671 840.887 268.124 841.901 266.151C842.967 264.178 843.501 261.911 843.501 259.351C843.501 256.844 842.967 254.604 841.901 252.631C840.887 250.604 839.474 249.031 837.661 247.911C835.847 246.791 833.741 246.231 831.341 246.231C828.994 246.231 826.887 246.818 825.021 247.991C823.154 249.111 821.687 250.658 820.621 252.631C819.607 254.551 819.101 256.791 819.101 259.351C819.101 261.911 819.607 264.178 820.621 266.151C821.687 268.124 823.154 269.671 825.021 270.791C826.887 271.911 828.994 272.471 831.341 272.471ZM884.371 282.071C879.891 282.071 875.971 281.058 872.611 279.031C869.251 277.004 866.637 274.258 864.771 270.791C862.904 267.324 861.971 263.484 861.971 259.271C861.971 254.898 862.904 251.031 864.771 247.671C866.691 244.258 869.277 241.564 872.531 239.591C875.837 237.618 879.517 236.631 883.571 236.631C886.984 236.631 889.971 237.191 892.531 238.311C895.144 239.431 897.357 240.978 899.171 242.951C900.984 244.924 902.371 247.191 903.331 249.751C904.291 252.258 904.771 254.978 904.771 257.911C904.771 258.658 904.717 259.431 904.611 260.231C904.557 261.031 904.424 261.724 904.211 262.311H870.611V254.311H898.291L893.331 258.071C893.811 255.618 893.677 253.431 892.931 251.511C892.237 249.591 891.064 248.071 889.411 246.951C887.811 245.831 885.864 245.271 883.571 245.271C881.384 245.271 879.437 245.831 877.731 246.951C876.024 248.018 874.717 249.618 873.811 251.751C872.957 253.831 872.637 256.364 872.851 259.351C872.637 262.018 872.984 264.391 873.891 266.471C874.851 268.498 876.237 270.071 878.051 271.191C879.917 272.311 882.051 272.871 884.451 272.871C886.851 272.871 888.877 272.364 890.531 271.351C892.237 270.338 893.571 268.978 894.531 267.271L903.011 271.431C902.157 273.511 900.824 275.351 899.011 276.951C897.197 278.551 895.037 279.804 892.531 280.711C890.077 281.618 887.357 282.071 884.371 282.071ZM925.054 281.111L907.934 237.591H919.374L931.774 271.831H927.534L940.014 237.591H951.454L934.334 281.111H925.054Z" fill="white"/>
</g>
<defs>
<clipPath id="clip0_8_12">
<rect width="406.667" height="80" fill="white" transform="translate(547.167 210)"/>
</clipPath>
<clipPath id="clip1_8_12">
<rect width="80" height="80" fill="white" transform="translate(547.167 210)"/>
</clipPath>
</defs>
</svg>
