<svg width="1500" height="500" viewBox="0 0 1500 500" fill="none" xmlns="http://www.w3.org/2000/svg">
<rect width="1500" height="500" fill="#060609"/>
<g clip-path="url(#clip0_8_12)">
<path d="M560 213H572.5C577.425 213 582.301 213.97 586.851 215.855C591.4 217.739 595.534 220.501 599.016 223.983C602.499 227.466 605.261 231.6 607.145 236.149C609.03 240.699 610 245.575 610 250.5C610 255.425 609.03 260.301 607.145 264.851C605.261 269.4 602.499 273.534 599.017 277.017C595.534 280.499 591.4 283.261 586.851 285.145C582.301 287.03 577.425 288 572.5 288H535V213L549.583 227.583V271.333H572.5C575.236 271.333 577.945 270.794 580.473 269.747C583 268.701 585.297 267.166 587.231 265.231C589.166 263.297 590.701 261 591.747 258.473C592.794 255.945 593.333 253.236 593.333 250.5C593.333 247.764 592.794 245.055 591.747 242.527C590.701 240 589.166 237.703 587.231 235.769C585.297 233.834 583 232.299 580.473 231.253C577.945 230.206 575.236 229.667 572.5 229.667L572.5 258.833L560 247.375V213Z" fill="#EFEFFA"/>
</g>
<path d="M634.668 282.129V216.197H646.077V282.129H634.668ZM673.509 283.174C669.851 283.174 666.657 282.361 663.928 280.735C661.257 279.11 659.196 276.845 657.744 273.942C656.351 271.039 655.654 267.642 655.654 263.752V234.748H667.064V262.794C667.064 264.768 667.441 266.51 668.196 268.019C669.009 269.471 670.141 270.632 671.593 271.503C673.102 272.316 674.786 272.723 676.644 272.723C678.502 272.723 680.157 272.316 681.609 271.503C683.06 270.632 684.193 269.442 685.005 267.932C685.818 266.423 686.225 264.623 686.225 262.532V234.748H697.635V282.129H686.835V272.81L687.793 274.465C686.689 277.368 684.86 279.545 682.305 280.997C679.809 282.448 676.876 283.174 673.509 283.174ZM708.241 282.129V216.197H719.65V259.397L715.295 258.09L737.592 234.748H751.789L734.283 253.823L752.137 282.129H739.073L723.57 257.568L730.363 256.174L716.079 271.503L719.65 264.535V282.129H708.241ZM772.879 283.174C769.57 283.174 766.695 282.623 764.257 281.519C761.818 280.416 759.931 278.848 758.595 276.816C757.26 274.726 756.592 272.316 756.592 269.587C756.592 266.974 757.173 264.652 758.334 262.619C759.495 260.529 761.295 258.787 763.734 257.394C766.173 256 769.25 255.013 772.966 254.432L788.47 251.906V260.616L775.144 262.881C772.879 263.287 771.195 264.013 770.092 265.058C768.989 266.103 768.437 267.468 768.437 269.152C768.437 270.777 769.047 272.084 770.266 273.071C771.544 274 773.112 274.465 774.97 274.465C777.35 274.465 779.441 273.971 781.241 272.984C783.099 271.939 784.521 270.516 785.508 268.716C786.554 266.916 787.076 264.942 787.076 262.794V250.6C787.076 248.568 786.263 246.884 784.637 245.548C783.07 244.155 780.979 243.458 778.366 243.458C775.928 243.458 773.75 244.126 771.834 245.461C769.976 246.739 768.612 248.452 767.741 250.6L758.421 246.071C759.35 243.574 760.802 241.426 762.776 239.626C764.808 237.768 767.189 236.316 769.918 235.271C772.647 234.226 775.608 233.703 778.802 233.703C782.692 233.703 786.118 234.429 789.079 235.881C792.041 237.274 794.334 239.248 795.96 241.803C797.644 244.3 798.486 247.232 798.486 250.6V282.129H787.686V274.029L790.125 273.855C788.905 275.887 787.454 277.6 785.77 278.994C784.086 280.329 782.17 281.374 780.021 282.129C777.873 282.826 775.492 283.174 772.879 283.174ZM831.067 283.174C826.48 283.174 822.386 282.1 818.786 279.952C815.186 277.745 812.341 274.755 810.251 270.981C808.16 267.206 807.115 263.026 807.115 258.439C807.115 253.794 808.16 249.613 810.251 245.897C812.341 242.181 815.186 239.219 818.786 237.013C822.444 234.806 826.509 233.703 830.98 233.703C834.58 233.703 837.773 234.429 840.56 235.881C843.406 237.274 845.641 239.248 847.267 241.803L845.525 244.155V216.197H856.935V282.129H846.135V272.984L847.354 275.248C845.728 277.803 843.464 279.777 840.56 281.171C837.657 282.506 834.493 283.174 831.067 283.174ZM832.286 272.723C834.899 272.723 837.193 272.113 839.167 270.894C841.141 269.674 842.68 267.99 843.783 265.842C844.944 263.694 845.525 261.226 845.525 258.439C845.525 255.71 844.944 253.271 843.783 251.123C842.68 248.916 841.141 247.203 839.167 245.984C837.193 244.765 834.899 244.155 832.286 244.155C829.731 244.155 827.438 244.794 825.406 246.071C823.373 247.29 821.776 248.974 820.615 251.123C819.512 253.213 818.96 255.652 818.96 258.439C818.96 261.226 819.512 263.694 820.615 265.842C821.776 267.99 823.373 269.674 825.406 270.894C827.438 272.113 829.731 272.723 832.286 272.723ZM890.02 283.174C885.143 283.174 880.875 282.071 877.217 279.865C873.559 277.658 870.714 274.668 868.682 270.894C866.649 267.119 865.633 262.939 865.633 258.352C865.633 253.59 866.649 249.381 868.682 245.723C870.772 242.006 873.588 239.074 877.13 236.926C880.73 234.777 884.737 233.703 889.149 233.703C892.866 233.703 896.117 234.313 898.904 235.532C901.749 236.752 904.159 238.435 906.133 240.584C908.108 242.732 909.617 245.2 910.662 247.987C911.708 250.716 912.23 253.677 912.23 256.871C912.23 257.684 912.172 258.526 912.056 259.397C911.998 260.268 911.853 261.023 911.62 261.661H875.04V252.952H905.175L899.775 257.045C900.298 254.374 900.153 251.994 899.34 249.903C898.585 247.813 897.308 246.158 895.508 244.939C893.766 243.719 891.646 243.11 889.149 243.11C886.769 243.11 884.649 243.719 882.791 244.939C880.933 246.1 879.511 247.842 878.524 250.165C877.595 252.429 877.246 255.187 877.478 258.439C877.246 261.342 877.624 263.926 878.611 266.19C879.656 268.397 881.166 270.11 883.14 271.329C885.172 272.548 887.495 273.158 890.108 273.158C892.72 273.158 894.927 272.606 896.727 271.503C898.585 270.4 900.037 268.919 901.082 267.061L910.314 271.59C909.385 273.855 907.933 275.858 905.959 277.6C903.985 279.342 901.633 280.706 898.904 281.694C896.233 282.681 893.272 283.174 890.02 283.174ZM934.313 282.129L915.674 234.748H928.129L941.629 272.026H937.013L950.6 234.748H963.054L944.416 282.129H934.313Z" fill="#EFEFFA"/>
<defs>
<clipPath id="clip0_8_12">
<rect width="75" height="75" fill="white" transform="translate(535 213)"/>
</clipPath>
</defs>
</svg>
